<svg width="138" height="34" viewBox="0 0 138 34" fill="none" xmlns="http://www.w3.org/2000/svg">
<path fill-rule="evenodd" clip-rule="evenodd" d="M51.1108 15.7255V12.2939H51.7074C51.8402 12.1445 51.9522 11.9775 52.0405 11.7973C52.1504 11.5834 52.2436 11.3611 52.3195 11.1325C52.384 10.9118 52.4434 10.6753 52.4977 10.4257C52.5569 10.1427 52.6017 9.85677 52.632 9.56908C52.6681 9.24589 52.6965 8.87278 52.7146 8.44711C52.7327 8.02145 52.7404 7.51958 52.7404 6.93889V4.37964H59.0108V12.2939H60.1807V15.7255H58.4711V13.9256H52.8282V15.7255H51.1108ZM54.0808 11.7684C54.0456 11.8631 54.0042 11.9552 53.9568 12.0443C53.9129 12.1283 53.8664 12.2124 53.8199 12.2939H57.1127V6.01136H54.6515V6.92838C54.6515 7.59316 54.636 8.17122 54.6102 8.65995C54.5844 9.14867 54.5456 9.58222 54.5017 9.95796C54.4625 10.2916 54.4029 10.6224 54.3235 10.9486C54.246 11.235 54.166 11.5082 54.0808 11.7684ZM60.8286 13.7988L64.1187 4.37964H65.9579L69.2506 13.7988H67.2057L66.63 12.0125H63.4623L62.8839 13.7988H60.8286ZM63.9546 10.3998H66.109L65.0383 7.08379L63.9546 10.3998ZM76.377 5.98969V4.37964H69.2507V5.98969H71.8534V13.7988H73.7742V5.98969H76.377ZM76.3769 13.7988L79.6748 4.37964H81.5011L84.799 13.7988H82.7561L82.1795 12.0125H79.0069L78.4303 13.7988H76.3769ZM79.5235 10.3998H81.6655L80.5932 7.08379L79.5235 10.3998ZM59.101 30.2824V20.8632H51.7587V30.2824H53.6976V22.4728H57.1622V30.2824H59.101ZM68.3868 20.8632V30.376H66.43V22.4888H64.0244V23.5359V23.5364C64.0244 24.3215 64.0244 24.9967 63.9979 25.5385L63.9925 25.6493C63.9683 26.1438 63.9476 26.5696 63.913 26.9206C63.8837 27.2409 63.8349 27.559 63.7669 27.8735C63.7105 28.1171 63.6378 28.3567 63.5492 28.5907C63.3479 29.1426 62.9765 29.6186 62.4872 29.952C61.9258 30.3018 61.2767 30.4903 60.6126 30.4965V28.5803C60.8742 28.5486 61.124 28.4542 61.3401 28.3054C61.5408 28.1484 61.6911 27.9375 61.7729 27.6981C61.8376 27.5113 61.8864 27.3196 61.919 27.1248C61.9678 26.8496 61.9988 26.5715 62.0119 26.2924C62.0305 25.9625 62.0437 25.5699 62.0544 25.1196C62.0613 24.8262 62.0592 24.5016 62.0569 24.1458C62.0557 23.9558 62.0544 23.7568 62.0544 23.549V20.8632H68.3868ZM72.9743 20.8632L69.6825 30.2824H71.7399L72.3154 28.4939H75.4847L76.0603 30.2824H78.1046L74.8128 20.8632H72.9743ZM73.8936 23.5666L74.9639 26.8817H72.8232L73.8936 23.5666ZM85.2309 20.8632V22.4728H82.6272V30.2824H80.7083V22.4728H78.1046V20.8632H85.2309ZM91.9261 20.8632H89.9838V21.546C89.4612 21.5419 88.9403 21.6047 88.4342 21.733C87.9791 21.8449 87.5567 22.06 87.2009 22.3612C86.8358 22.6812 86.557 23.0853 86.3892 23.5373C86.1785 24.1201 86.0793 24.7363 86.0967 25.3547V25.7909C86.0795 26.4093 86.1786 27.0254 86.3892 27.6083C86.557 28.0603 86.8358 28.4644 87.2009 28.7844C87.5567 29.0855 87.9791 29.3007 88.4342 29.4126C88.9405 29.5399 89.4614 29.6019 89.9838 29.597V30.2824H91.9261V29.597C92.445 29.6021 92.9625 29.5401 93.4651 29.4126C93.9306 29.3007 94.3609 29.0775 94.718 28.7628C95.0751 28.4481 95.3481 28.0516 95.5128 27.6083C95.7265 27.0261 95.8275 26.4097 95.8106 25.7909V25.3547C95.8279 24.7359 95.7269 24.1194 95.5128 23.5373C95.3481 23.094 95.0751 22.6975 94.718 22.3828C94.3609 22.0681 93.9306 21.8449 93.4651 21.733C92.9626 21.6046 92.4452 21.5417 91.9261 21.546V20.8632ZM89.1352 23.2621C89.412 23.1903 89.6976 23.1563 89.9838 23.1609V28.0003C89.6974 28.0055 89.4116 27.9705 89.1352 27.8964C88.9065 27.8347 88.6984 27.7147 88.5317 27.5485C88.3553 27.3585 88.2294 27.1284 88.1654 26.8787C88.0722 26.5263 88.0296 26.1627 88.0389 25.7987V25.3625C88.0296 24.9984 88.0722 24.6349 88.1654 24.2825C88.2294 24.0328 88.3553 23.8026 88.5317 23.6126C88.6982 23.4457 88.9063 23.3248 89.1352 23.2621ZM92.772 27.8964C92.4965 27.9707 92.2116 28.0056 91.9261 28.0003V23.1609C92.2114 23.1561 92.4961 23.1901 92.772 23.2621C93.0011 23.3242 93.2094 23.4452 93.3755 23.6126C93.5518 23.8031 93.6784 24.033 93.7444 24.2825C93.8353 24.6353 93.877 24.9986 93.8683 25.3625V25.7987C93.8769 26.1625 93.8352 26.5259 93.7444 26.8787C93.6784 27.1282 93.5518 27.3581 93.3755 27.5485C93.2092 27.7152 93.0009 27.8353 92.772 27.8964ZM104.665 26.2543C104.679 26.8974 104.59 27.5387 104.401 28.1534C104.244 28.6419 103.986 29.0919 103.643 29.474C103.321 29.8207 102.92 30.0851 102.474 30.2452C101.998 30.4159 101.495 30.5008 100.989 30.4962C100.484 30.5017 99.9827 30.4167 99.5082 30.2452C99.0657 30.0836 98.6677 29.8193 98.3471 29.474C98.0038 29.0926 97.7456 28.6424 97.5897 28.1534C97.4002 27.5387 97.311 26.8974 97.3258 26.2543V24.8914C97.3104 24.2439 97.3995 23.5981 97.5897 22.9791C97.745 22.4898 98.0033 22.0395 98.3471 21.6584C98.6664 21.3127 99.0649 21.0499 99.5082 20.8925C99.9836 20.7251 100.485 20.6428 100.989 20.6495C101.494 20.6435 101.997 20.7257 102.474 20.8925C102.921 21.0487 103.322 21.3117 103.643 21.6584C103.986 22.0401 104.244 22.4902 104.401 22.9791C104.591 23.5981 104.68 24.2439 104.665 24.8914V26.2543ZM99.2602 26.2543C99.2602 27.1717 99.4061 27.8346 99.6982 28.2432C99.8439 28.445 100.038 28.6069 100.263 28.714C100.487 28.821 100.735 28.8699 100.983 28.8559C101.232 28.8693 101.481 28.8203 101.706 28.7133C101.932 28.6063 102.127 28.4447 102.274 28.2432C102.573 27.8329 102.722 27.1699 102.72 26.2543V24.8914C102.72 23.9722 102.571 23.3092 102.274 22.9025C102.127 22.7004 101.932 22.5384 101.707 22.4314C101.481 22.3243 101.232 22.2756 100.983 22.2897C100.735 22.275 100.487 22.3235 100.262 22.4307C100.037 22.5378 99.8434 22.7001 99.6982 22.9025C99.4061 23.3092 99.2602 23.9722 99.2602 24.8914V26.2543ZM108.526 30.2824V26.9647H109.985C111.094 26.9664 111.96 26.7029 112.584 26.1741C113.208 25.6454 113.52 24.8807 113.52 23.8802C113.519 22.8711 113.201 22.116 112.569 21.6149C111.936 21.1138 111.076 20.8632 109.99 20.8632H106.61V30.2824H108.526ZM111.162 24.9974C110.866 25.2358 110.384 25.3551 109.717 25.3551L108.526 25.3603V22.478H109.717C110.384 22.478 110.866 22.5972 111.162 22.8357C111.312 22.9622 111.43 23.1218 111.507 23.3017C111.585 23.4817 111.619 23.6771 111.607 23.8725C111.625 24.0815 111.594 24.2918 111.517 24.487C111.44 24.6821 111.318 24.8568 111.162 24.9974ZM119.56 25.9965L122.244 20.8658H124.102V30.2824H122.244V24.4417L120.147 28.5877H118.958L116.89 24.4806V30.2798H115.032V20.8632H116.863L119.56 25.9965ZM128.695 20.8632L125.398 30.2824H127.453L128.03 28.4939H131.195L131.771 30.2824H133.82L130.522 20.8632H128.695ZM130.694 26.8817H128.552L129.622 23.5666L130.694 26.8817Z" fill="#565655"/>
<path d="M23.0651 0.0939941H0.409979V8.92909H17.8569C21.0142 8.92909 24.0421 10.1702 26.2747 12.3794C28.5072 14.5886 29.7614 17.5849 29.7614 20.7092C29.7614 23.8335 28.5072 26.8298 26.2747 29.039C24.0421 31.2482 21.0142 32.4894 17.8569 32.4894H8.92843V28.4179C10.5088 29.1188 12.5936 29.5443 14.8807 29.5443C19.8122 29.5443 23.8092 27.5667 23.8092 25.1268C23.8079 24.8762 23.7652 24.6275 23.6827 24.3905C22.9744 26.48 19.3048 28.0718 14.8807 28.0718C12.5921 28.0718 10.5073 27.6448 8.92843 26.9453V24.0003C10.5088 24.7012 12.5936 25.1268 14.8807 25.1268C19.8122 25.1268 23.8092 23.1492 23.8092 20.7092C23.8079 20.4586 23.7652 20.2099 23.6827 19.973C22.9744 22.0625 19.3048 23.6543 14.8807 23.6543C12.5921 23.6543 10.5073 23.2272 8.92843 22.5278V19.5828C10.5088 20.2837 12.5936 20.7092 14.8807 20.7092C19.8122 20.7092 23.8092 18.7316 23.8092 16.2917C23.8092 13.8517 19.8122 11.8741 14.8807 11.8741C9.94925 11.8741 5.95229 13.8517 5.95229 16.2917L0 33.9619H23.0651C27.6037 33.9619 31.9564 32.1778 35.1657 29.002C38.375 25.8263 40.178 21.5191 40.178 17.0279C40.178 12.5368 38.375 8.22956 35.1657 5.05383C31.9564 1.8781 27.6037 0.0939941 23.0651 0.0939941Z" fill="url(#paint0_linear_369_2077)"/>
<defs>
<linearGradient id="paint0_linear_369_2077" x1="32.8864" y1="2.72816" x2="8.324" y2="35.886" gradientUnits="userSpaceOnUse">
<stop offset="0.276033" stop-color="#0097D8"/>
<stop offset="1" stop-color="#15FF2D"/>
<stop offset="1" stop-color="#59FF6A"/>
</linearGradient>
</defs>
</svg>
